<?xml version="1.0" encoding="UTF-8"?>
<svg width="300px" height="300px" viewBox="0 0 300 300" version="1.1" xmlns="http://www.w3.org/2000/svg" xmlns:xlink="http://www.w3.org/1999/xlink">
    <!-- Generator: Sketch 47.1 (45422) - http://www.bohemiancoding.com/sketch -->
    <title>Artboard</title>
    <desc>Created with Sketch.</desc>
    <defs></defs>
    <g id="Patterns" stroke="none" stroke-width="1" fill="none" fill-rule="evenodd">
        <g id="Artboard" fill="#C4F3DD">
            <g id="fruits" transform="translate(-24.000000, -34.000000)">
                <g id="strawberry" transform="translate(152.000000, 69.000000)">
                    <g id="Group">
                        <path d="M23.5,24.2307692 C22.8285714,20.1923077 22.2914286,17.5 23.3657143,15.0769231 C20.2771429,13.8653846 15.1742857,9.28846154 13.4285714,5.65384615 C17.7257143,3.76923077 22.1571429,5.11538462 25.38,7.94230769 C23.7685714,4.57692308 24.8428571,1.21153846 25.38,0 C32.4971429,4.30769231 33.4371429,7.53846154 33.9742857,10.0961538 C36.3914286,8.21153846 39.2114286,6.86538462 41.4942857,6.73076923 C42.9714286,6.73076923 43.1057143,9.01923077 41.6285714,9.15384615 C39.8828571,9.15384615 37.8685714,10.0961538 35.8542857,11.4423077 C38.4057143,11.5769231 41.6285714,12.1153846 47,18.1730769 C45.9257143,18.9807692 42.8371429,20.4615385 39.2114286,19.5192308 C42.5685714,22.2115385 43.7771429,27.0576923 43.1057143,31.0961538 C39.2114286,29.8846154 34.2428571,25.7115385 32.4971429,22.75 C30.3485714,24.2307692 27.5285714,24.0961538 23.5,24.2307692 Z" id="Shape"></path>
                        <path d="M13.16,8.75 C2.41714286,13.7307692 -4.83428571,38.5 4.16285714,46.5769231 C13.16,53.7115385 36.5257143,43.6153846 40.0171429,31.7692308 C37.0628571,30.2884615 33.84,27.5961538 31.8257143,25.1730769 C29.0057143,26.25 25.1114286,25.9807692 22.0228571,25.9807692 C21.4857143,22.8846154 20.5457143,19.1153846 21.2171429,16.0192308 C18.3971429,14.5384615 15.1742857,11.4423077 13.16,8.75 Z M15.1742857,44.8269231 C16.6514286,43.3461538 13.2942857,40.5192308 12.22,42.5384615 C10.2057143,46.4423077 12.22,47.5192308 15.1742857,44.8269231 Z M24.8428571,33.25 C26.4542857,31.6346154 23.0971429,28.8076923 21.8885714,30.9615385 C19.8742857,35 21.8885714,35.9423077 24.8428571,33.25 Z M33.7057143,35 C35.3171429,33.3846154 31.96,30.5576923 30.7514286,32.7115385 C28.7371429,36.75 30.7514286,37.6923077 33.7057143,35 Z M5.10285714,36.4807692 C6.31142857,34.7307692 9.80285714,37.5576923 7.92285714,39.0384615 C4.29714286,41.7307692 2.95428571,39.9807692 5.10285714,36.4807692 Z M14.9057143,24.9038462 C16.1142857,23.0192308 19.6057143,25.8461538 17.5914286,27.3269231 C13.9657143,30.1538462 12.6228571,28.4038462 14.9057143,24.9038462 Z M13.2942857,34.0576923 C14.5028571,32.3076923 17.86,35.1346154 15.98,36.6153846 C12.4885714,39.3076923 11.1457143,37.4230769 13.2942857,34.0576923 Z M22.1571429,38.5 C23.3657143,36.6153846 26.8571429,39.4423077 24.8428571,40.9230769 C21.2171429,43.75 19.8742857,42 22.1571429,38.5 Z M7.38571429,25.9807692 C8.59428571,24.0961538 11.9514286,27.0576923 10.0714286,28.4038462 C6.58,31.0961538 5.23714286,29.3461538 7.38571429,25.9807692 Z M11.6828571,16.4230769 C12.8914286,14.5384615 16.2485714,17.3653846 14.3685714,18.9807692 C10.7428571,21.8076923 9.4,19.9230769 11.6828571,16.4230769 Z" id="Shape"></path>
                    </g>
                </g>
                <g id="noun_1137983_cc" transform="translate(301.000000, 75.000000)">
                    <g id="Group">
                        <path d="M21.3636364,16.7963918 C18.7245989,15.6597938 15.959893,13.1340206 14.3262032,10.4819588 C4.39839572,13.6391753 -0.251336898,30.814433 3.26737968,39.9072165 C4.64973262,43.5695876 7.1631016,45.5902062 10.9331551,46.4742268 C18.9759358,48.1159794 29.657754,43.443299 34.684492,37.507732 C35.4385027,36.6237113 37.9518717,32.7087629 37.7005348,31.5721649 C37.3235294,31.8247423 31.7941176,27.4046392 30.9144385,25.1314433 C28.2754011,26.3943299 24.5053476,26.1417526 21.6149733,26.2680412 C21.2379679,23.2371134 20.4839572,19.5747423 21.3636364,16.7963918 Z M40.5909091,8.08247423 C41.8475936,8.08247423 42.2245989,10.2293814 40.7165775,10.2293814 C39.3342246,10.2293814 37.7005348,10.8608247 36.1925134,11.7448454 C41.0935829,12.5025773 43.6069519,15.2809278 47,19.4484536 C44.8636364,20.8376289 43.1042781,21.7216495 40.4652406,21.8479381 C42.7272727,25.3840206 42.7272727,29.1726804 41.973262,33.0876289 C41.2192513,32.8350515 40.4652406,32.7087629 39.7112299,32.3298969 C39.3342246,34.7293814 38.0775401,37.0025773 36.4438503,39.0231959 C30.9144385,45.4639175 19.3529412,50.3891753 10.5561497,48.4948454 C6.03208556,47.4845361 3.01604278,44.9587629 1.25668449,40.6649485 C-2.51336898,30.814433 2.51336898,12.1237113 12.9438503,8.58762887 C12.6925134,8.08247423 12.4411765,7.19845361 12.1898396,6.56701031 C15.959893,4.79896907 19.3529412,4.42010309 23.3743316,6.69329897 C23.1229947,4.04123711 23.7513369,2.27319588 24.7566845,0 C29.1550802,2.65206186 33.0508021,5.43041237 34.0561497,10.4819588 C36.1925134,9.09278351 38.5802139,8.08247423 40.5909091,8.08247423 Z M33.5534759,13.6391753 C32.4224599,14.6494845 31.5427807,15.7860825 31.1657754,16.7963918 C30.6631016,18.0592784 28.6524064,17.1752577 29.1550802,15.9123711 C29.7834225,14.5231959 30.7887701,13.1340206 32.171123,11.9974227 C31.1657754,7.95618557 30.7887701,6.44072165 25.8877005,3.15721649 C24.8823529,6.06185567 25.0080214,8.84020619 24.8823529,9.47164948 C24.5053476,9.34536082 21.2379679,5.80927835 14.9545455,7.70360825 C16.9652406,11.3659794 20.3582888,14.3969072 24.2540107,15.7860825 C22.6203209,18.943299 22.9973262,20.4587629 23.5,24.121134 C27.0187166,23.9948454 28.526738,24.121134 31.5427807,22.2268041 C33.5534759,25.8891753 36.8208556,29.0463918 40.2139037,30.3092784 C40.9679144,24.121134 37.197861,20.4587629 37.4491979,20.3324742 C38.4545455,20.0798969 41.8475936,20.3324742 43.7326203,18.8170103 C39.459893,14.0180412 37.9518717,14.1443299 33.5534759,13.6391753 Z" id="Shape" fill-rule="nonzero"></path>
                        <path d="M12.315508,16.6701031 C13.4465241,14.9020619 16.5882353,17.6804124 14.828877,18.943299 C11.4358289,21.4690722 10.1791444,19.7010309 12.315508,16.6701031 Z" id="Shape"></path>
                        <path d="M8.4197861,25.1314433 C9.42513369,23.4896907 12.6925134,26.2680412 10.9331551,27.5309278 C7.6657754,29.9304124 6.40909091,28.1623711 8.4197861,25.1314433 Z" id="Shape"></path>
                        <path d="M22.1176471,37.2551546 C23.2486631,35.6134021 26.3903743,38.3917526 24.631016,39.6546392 C21.3636364,42.1804124 20.1069519,40.4123711 22.1176471,37.2551546 Z" id="Shape"></path>
                        <path d="M13.8235294,32.9613402 C14.9545455,31.3195876 18.0962567,34.0979381 16.4625668,35.2345361 C13.1951872,37.6340206 11.9385027,35.8659794 13.8235294,32.9613402 Z" id="Shape"></path>
                        <path d="M15.3315508,24.5 C16.4625668,22.8582474 19.6042781,25.6365979 17.8449198,26.8994845 C14.5775401,29.2989691 13.3208556,27.5309278 15.3315508,24.5 Z" id="Shape"></path>
                        <path d="M6.40909091,34.7293814 C7.54010695,33.0876289 10.6818182,35.8659794 8.92245989,37.128866 C5.65508021,39.5283505 4.39839572,37.7603093 6.40909091,34.7293814 Z" id="Shape"></path>
                        <path d="M24.631016,32.5824742 C26.1390374,31.193299 22.8716578,28.4149485 21.8663102,30.3092784 C19.9812834,33.9716495 21.8663102,34.9819588 24.631016,32.5824742 Z" id="Shape"></path>
                        <path d="M15.7085561,42.8118557 C17.0909091,41.5489691 13.9491979,38.7706186 12.9438503,40.6649485 C11.184492,44.0747423 13.0695187,45.0850515 15.7085561,42.8118557 Z" id="Shape"></path>
                    </g>
                </g>
                <g id="noun_1137983_cc" transform="translate(0.000000, 75.000000)">
                    <g id="Group">
                        <path d="M21.3636364,16.7963918 C18.7245989,15.6597938 15.959893,13.1340206 14.3262032,10.4819588 C4.39839572,13.6391753 -0.251336898,30.814433 3.26737968,39.9072165 C4.64973262,43.5695876 7.1631016,45.5902062 10.9331551,46.4742268 C18.9759358,48.1159794 29.657754,43.443299 34.684492,37.507732 C35.4385027,36.6237113 37.9518717,32.7087629 37.7005348,31.5721649 C37.3235294,31.8247423 31.7941176,27.4046392 30.9144385,25.1314433 C28.2754011,26.3943299 24.5053476,26.1417526 21.6149733,26.2680412 C21.2379679,23.2371134 20.4839572,19.5747423 21.3636364,16.7963918 Z M40.5909091,8.08247423 C41.8475936,8.08247423 42.2245989,10.2293814 40.7165775,10.2293814 C39.3342246,10.2293814 37.7005348,10.8608247 36.1925134,11.7448454 C41.0935829,12.5025773 43.6069519,15.2809278 47,19.4484536 C44.8636364,20.8376289 43.1042781,21.7216495 40.4652406,21.8479381 C42.7272727,25.3840206 42.7272727,29.1726804 41.973262,33.0876289 C41.2192513,32.8350515 40.4652406,32.7087629 39.7112299,32.3298969 C39.3342246,34.7293814 38.0775401,37.0025773 36.4438503,39.0231959 C30.9144385,45.4639175 19.3529412,50.3891753 10.5561497,48.4948454 C6.03208556,47.4845361 3.01604278,44.9587629 1.25668449,40.6649485 C-2.51336898,30.814433 2.51336898,12.1237113 12.9438503,8.58762887 C12.6925134,8.08247423 12.4411765,7.19845361 12.1898396,6.56701031 C15.959893,4.79896907 19.3529412,4.42010309 23.3743316,6.69329897 C23.1229947,4.04123711 23.7513369,2.27319588 24.7566845,0 C29.1550802,2.65206186 33.0508021,5.43041237 34.0561497,10.4819588 C36.1925134,9.09278351 38.5802139,8.08247423 40.5909091,8.08247423 Z M33.5534759,13.6391753 C32.4224599,14.6494845 31.5427807,15.7860825 31.1657754,16.7963918 C30.6631016,18.0592784 28.6524064,17.1752577 29.1550802,15.9123711 C29.7834225,14.5231959 30.7887701,13.1340206 32.171123,11.9974227 C31.1657754,7.95618557 30.7887701,6.44072165 25.8877005,3.15721649 C24.8823529,6.06185567 25.0080214,8.84020619 24.8823529,9.47164948 C24.5053476,9.34536082 21.2379679,5.80927835 14.9545455,7.70360825 C16.9652406,11.3659794 20.3582888,14.3969072 24.2540107,15.7860825 C22.6203209,18.943299 22.9973262,20.4587629 23.5,24.121134 C27.0187166,23.9948454 28.526738,24.121134 31.5427807,22.2268041 C33.5534759,25.8891753 36.8208556,29.0463918 40.2139037,30.3092784 C40.9679144,24.121134 37.197861,20.4587629 37.4491979,20.3324742 C38.4545455,20.0798969 41.8475936,20.3324742 43.7326203,18.8170103 C39.459893,14.0180412 37.9518717,14.1443299 33.5534759,13.6391753 Z" id="Shape" fill-rule="nonzero"></path>
                        <path d="M22.1176471,37.2551546 C23.2486631,35.6134021 26.3903743,38.3917526 24.631016,39.6546392 C21.3636364,42.1804124 20.1069519,40.4123711 22.1176471,37.2551546 Z" id="Shape"></path>
                        <path d="M32.7994652,34.4768041 C34.3074866,33.2139175 31.1657754,30.435567 30.0347594,32.3298969 C28.1497326,35.8659794 30.0347594,37.0025773 32.7994652,34.4768041 Z" id="Shape"></path>
                        <path d="M24.631016,32.5824742 C26.1390374,31.193299 22.8716578,28.4149485 21.8663102,30.3092784 C19.9812834,33.9716495 21.8663102,34.9819588 24.631016,32.5824742 Z" id="Shape"></path>
                    </g>
                </g>
                <g id="noun_1137978_cc" transform="translate(269.000000, 215.000000)">
                    <g id="Group">
                        <ellipse id="Oval" transform="translate(7.465939, 22.563404) rotate(33.699067) translate(-7.465939, -22.563404) " cx="7.46593857" cy="22.5634043" rx="1.26557028" ry="1.26233904"></ellipse>
                        <path d="M18.4300341,2.72340426 C16.7235495,1.36170213 20.1365188,-1.19148936 21.5017065,1.0212766 C22.8668942,3.23404255 23.5494881,4.93617021 23.7201365,6.63829787 C25.2559727,6.80851064 26.7918089,7.14893617 28.1569966,7.65957447 C33.9590444,2.21276596 40.6143345,3.23404255 50,9.36170213 C49.6587031,9.70212766 44.7098976,14.2978723 38.5665529,16.1702128 C40.443686,19.4042553 41.6382253,23.1489362 41.6382253,27.2340426 C41.6382253,38.6382979 32.2525597,48 20.8191126,48 C9.38566553,48 0,38.6382979 0,27.2340426 C0,15.8297872 9.21501706,6.46808511 20.6484642,6.46808511 C20.3071672,5.27659574 19.6245734,4.25531915 18.4300341,2.72340426 Z M23.7201365,8.85106383 C23.7201365,9.87234043 23.5494881,11.0638298 23.3788396,12.2553191 C23.0375427,13.9574468 20.1365188,13.4468085 20.6484642,11.7446809 C20.6484642,10.5531915 20.8191126,9.53191489 20.8191126,8.68085106 C10.5802048,8.68085106 2.21843003,17.0212766 2.21843003,27.2340426 C2.21843003,37.4468085 10.5802048,45.6170213 20.8191126,45.6170213 C31.0580205,45.6170213 39.4197952,37.4468085 39.4197952,27.2340426 C39.4197952,23.3191489 38.225256,19.7446809 36.1774744,16.8510638 C32.5938567,17.3617021 28.668942,17.0212766 25.0853242,14.2978723 C28.8395904,10.893617 33.2764505,9.53191489 39.5904437,9.36170213 C32.9351536,7.65957447 28.4982935,9.87234043 24.0614334,12.7659574 C24.9146758,11.5744681 25.5972696,10.3829787 26.4505119,9.53191489 C25.5972696,9.19148936 24.7440273,9.0212766 23.7201365,8.85106383 Z" id="Shape" fill-rule="nonzero"></path>
                        <path d="M5.63139932,26.3829787 C5.63139932,24.8510638 7.84982935,24.8510638 7.84982935,26.3829787 C7.67918089,31.8297872 11.4334471,37.9574468 16.894198,39.3191489 C18.2593857,39.6595745 17.7474403,41.8723404 16.2116041,41.5319149 C9.72696246,39.8297872 5.46075085,32.8510638 5.63139932,26.3829787 Z" id="Shape" fill-rule="nonzero"></path>
                    </g>
                </g>
                <g id="noun_1137978_cc" transform="translate(102.000000, 145.000000)">
                    <g id="Group">
                        <ellipse id="Oval" transform="translate(7.465939, 22.563404) rotate(33.699067) translate(-7.465939, -22.563404) " cx="7.46593857" cy="22.5634043" rx="1.26557028" ry="1.26233904"></ellipse>
                        <path d="M18.4300341,2.72340426 C16.7235495,1.36170213 20.1365188,-1.19148936 21.5017065,1.0212766 C22.8668942,3.23404255 23.5494881,4.93617021 23.7201365,6.63829787 C25.2559727,6.80851064 26.7918089,7.14893617 28.1569966,7.65957447 C33.9590444,2.21276596 40.6143345,3.23404255 50,9.36170213 C49.6587031,9.70212766 44.7098976,14.2978723 38.5665529,16.1702128 C40.443686,19.4042553 41.6382253,23.1489362 41.6382253,27.2340426 C41.6382253,38.6382979 32.2525597,48 20.8191126,48 C9.38566553,48 0,38.6382979 0,27.2340426 C0,15.8297872 9.21501706,6.46808511 20.6484642,6.46808511 C20.3071672,5.27659574 19.6245734,4.25531915 18.4300341,2.72340426 Z M23.7201365,8.85106383 C23.7201365,9.87234043 23.5494881,11.0638298 23.3788396,12.2553191 C23.0375427,13.9574468 20.1365188,13.4468085 20.6484642,11.7446809 C20.6484642,10.5531915 20.8191126,9.53191489 20.8191126,8.68085106 C10.5802048,8.68085106 2.21843003,17.0212766 2.21843003,27.2340426 C2.21843003,37.4468085 10.5802048,45.6170213 20.8191126,45.6170213 C31.0580205,45.6170213 39.4197952,37.4468085 39.4197952,27.2340426 C39.4197952,23.3191489 38.225256,19.7446809 36.1774744,16.8510638 C32.5938567,17.3617021 28.668942,17.0212766 25.0853242,14.2978723 C28.8395904,10.893617 33.2764505,9.53191489 39.5904437,9.36170213 C32.9351536,7.65957447 28.4982935,9.87234043 24.0614334,12.7659574 C24.9146758,11.5744681 25.5972696,10.3829787 26.4505119,9.53191489 C25.5972696,9.19148936 24.7440273,9.0212766 23.7201365,8.85106383 Z" id="Shape" fill-rule="nonzero"></path>
                        <path d="M5.63139932,26.3829787 C5.63139932,24.8510638 7.84982935,24.8510638 7.84982935,26.3829787 C7.67918089,31.8297872 11.4334471,37.9574468 16.894198,39.3191489 C18.2593857,39.6595745 17.7474403,41.8723404 16.2116041,41.5319149 C9.72696246,39.8297872 5.46075085,32.8510638 5.63139932,26.3829787 Z" id="Shape" fill-rule="nonzero"></path>
                    </g>
                </g>
                <g id="noun_1137985_cc" transform="translate(54.000000, 310.000000)">
                    <g id="Group">
                        <path d="M36.4953271,9.31690141 C41.4641745,3.79577465 47.6323988,3.62323944 55,13.8028169 C50.0311526,14.8380282 44.376947,20.0140845 35.6386293,10.5246479 C39.2367601,10.3521127 41.9781931,8.97183099 47.9750779,11.5598592 C44.8909657,9.48943662 40.9501558,7.93661972 36.4953271,9.31690141 Z" id="Shape"></path>
                        <path d="M33.2398754,38.9929577 C20.046729,54.8661972 -10.623053,51.0704225 3.7694704,32.7816901 C4.79750779,31.4014085 5.82554517,23.9823944 6.51090343,21.3943662 C10.2803738,7.41901408 23.9875389,4.83098592 32.8971963,9.83450704 C34.0965732,7.24647887 34.6105919,4.14084507 33.7538941,1.38028169 C33.411215,-1.04083409e-17 36.3239875,-0.517605634 36.8380062,0.690140845 C37.694704,4.14084507 36.4953271,7.76408451 34.6105919,11.0422535 C41.4641745,16.0457746 43.8629283,26.2253521 33.2398754,38.9929577 Z M35.6386293,22.084507 C35.1246106,22.2570423 34.7819315,22.9471831 34.953271,23.6373239 C35.2959502,24.1549296 35.8099688,24.5 36.4953271,24.3274648 C37.0093458,23.9823944 37.3520249,23.2922535 37.1806854,22.7746479 C36.8380062,22.084507 36.3239875,21.9119718 35.6386293,22.084507 Z M34.6105919,26.3978873 C34.7819315,25.1901408 36.8380062,25.7077465 36.4953271,26.915493 C35.2959502,31.5739437 32.7258567,35.5422535 28.7850467,38.4753521 C27.7570093,39.165493 26.5576324,37.4401408 27.7570093,36.75 C31.1838006,34.1619718 33.411215,30.7112676 34.6105919,26.3978873 Z" id="Shape"></path>
                    </g>
                </g>
                <g id="noun_1137985_cc" transform="translate(175.000000, 212.000000)">
                    <g id="Group">
                        <path d="M36.4953271,9.31690141 C41.4641745,3.79577465 47.6323988,3.62323944 55,13.8028169 C50.0311526,14.8380282 44.376947,20.0140845 35.6386293,10.5246479 C39.2367601,10.3521127 41.9781931,8.97183099 47.9750779,11.5598592 C44.8909657,9.48943662 40.9501558,7.93661972 36.4953271,9.31690141 Z" id="Shape"></path>
                        <path d="M33.2398754,38.9929577 C20.046729,54.8661972 -10.623053,51.0704225 3.7694704,32.7816901 C4.79750779,31.4014085 5.82554517,23.9823944 6.51090343,21.3943662 C10.2803738,7.41901408 23.9875389,4.83098592 32.8971963,9.83450704 C34.0965732,7.24647887 34.6105919,4.14084507 33.7538941,1.38028169 C33.411215,-1.04083409e-17 36.3239875,-0.517605634 36.8380062,0.690140845 C37.694704,4.14084507 36.4953271,7.76408451 34.6105919,11.0422535 C41.4641745,16.0457746 43.8629283,26.2253521 33.2398754,38.9929577 Z M35.6386293,22.084507 C35.1246106,22.2570423 34.7819315,22.9471831 34.953271,23.6373239 C35.2959502,24.1549296 35.8099688,24.5 36.4953271,24.3274648 C37.0093458,23.9823944 37.3520249,23.2922535 37.1806854,22.7746479 C36.8380062,22.084507 36.3239875,21.9119718 35.6386293,22.084507 Z M34.6105919,26.3978873 C34.7819315,25.1901408 36.8380062,25.7077465 36.4953271,26.915493 C35.2959502,31.5739437 32.7258567,35.5422535 28.7850467,38.4753521 C27.7570093,39.165493 26.5576324,37.4401408 27.7570093,36.75 C31.1838006,34.1619718 33.411215,30.7112676 34.6105919,26.3978873 Z" id="Shape"></path>
                    </g>
                </g>
                <g id="noun_1137985_cc" transform="translate(54.000000, 9.000000)">
                    <g id="Group">
                        <path d="M33.2398754,38.9929577 C20.046729,54.8661972 -10.623053,51.0704225 3.7694704,32.7816901 C4.79750779,31.4014085 5.82554517,23.9823944 6.51090343,21.3943662 C10.2803738,7.41901408 23.9875389,4.83098592 32.8971963,9.83450704 C34.0965732,7.24647887 34.6105919,4.14084507 33.7538941,1.38028169 C33.411215,-1.04083409e-17 36.3239875,-0.517605634 36.8380062,0.690140845 C37.694704,4.14084507 36.4953271,7.76408451 34.6105919,11.0422535 C41.4641745,16.0457746 43.8629283,26.2253521 33.2398754,38.9929577 Z M35.6386293,22.084507 C35.1246106,22.2570423 34.7819315,22.9471831 34.953271,23.6373239 C35.2959502,24.1549296 35.8099688,24.5 36.4953271,24.3274648 C37.0093458,23.9823944 37.3520249,23.2922535 37.1806854,22.7746479 C36.8380062,22.084507 36.3239875,21.9119718 35.6386293,22.084507 Z M34.6105919,26.3978873 C34.7819315,25.1901408 36.8380062,25.7077465 36.4953271,26.915493 C35.2959502,31.5739437 32.7258567,35.5422535 28.7850467,38.4753521 C27.7570093,39.165493 26.5576324,37.4401408 27.7570093,36.75 C31.1838006,34.1619718 33.411215,30.7112676 34.6105919,26.3978873 Z" id="Shape"></path>
                    </g>
                </g>
                <g id="noun_1137986_cc" transform="translate(82.000000, 236.000000)">
                    <g id="Group">
                        <ellipse id="Oval" transform="translate(5.678862, 39.797251) rotate(35.845242) translate(-5.678862, -39.797251) " cx="5.67886222" cy="39.7972513" rx="1" ry="1"></ellipse>
                        <path d="M4.33333333,41.7539267 C4.47777778,40.8900524 5.77777778,41.1780105 5.63333333,42.0418848 C5.34444444,43.3376963 5.92222222,45.2094241 6.64444444,46.3612565 C7.07777778,47.0811518 5.92222222,47.6570681 5.48888889,46.9371728 C4.62222222,45.6413613 4.04444444,43.3376963 4.33333333,41.7539267 Z" id="Shape" fill-rule="nonzero"></path>
                        <path d="M23.9777778,38.7303665 C23.8333333,38.0104712 24.9888889,37.8664921 24.9888889,38.5863874 C25.1333333,39.7382199 26,41.1780105 26.7222222,41.8979058 C27.3,42.473822 26.4333333,43.1937173 26,42.7617801 C24.9888889,41.7539267 24.1222222,40.1701571 23.9777778,38.7303665 Z" id="Shape" fill-rule="nonzero"></path>
                        <path d="M33.0777778,32.6832461 C31.3444444,31.8193717 29.6111111,32.395288 28.1666667,33.4031414 C27.4444444,33.9790576 27.1555556,34.1230366 26.4333333,34.2670157 C23.5444444,35.1308901 21.9555556,36.8586387 22.8222222,40.026178 C23.5444444,42.9057592 26.4333333,45.7853403 29.4666667,46.3612565 C31.9222222,46.6492147 34.3777778,45.6413613 35.6777778,43.4816754 C37.7,40.3141361 36.6888889,34.4109948 33.0777778,32.6832461 Z M19.9333333,46.3612565 C21.8111111,41.0340314 19.6444444,35.2748691 12.7111111,36.2827225 C11.7,36.5706806 11.4111111,36.5706806 10.4,36.2827225 C3.61111111,34.986911 1.44444444,40.3141361 2.88888889,45.6413613 C5.34444444,54.7120419 16.7555556,55.2879581 19.9333333,46.3612565 Z M31.0555556,3.88743455 C32.9333333,3.31151832 33.9444444,7.63089005 31.9222222,8.20680628 C29.0333333,9.07068063 26,8.78272251 23.1111111,7.91884817 C22.2444444,15.5497382 22.5333333,25.052356 27.1555556,31.3874346 C29.3222222,29.947644 31.7777778,29.5157068 34.0888889,30.6675393 C38.8555556,32.9712042 40.3,40.4581152 37.5555556,44.7774869 C35.8222222,47.513089 32.5,48.9528796 29.1777778,48.5209424 C26.7222222,48.0890052 24.4111111,46.6492147 22.8222222,44.6335079 C22.6777778,45.4973822 22.3888889,46.2172775 22.1,47.0811518 C18.3444444,58.0235602 3.75555556,57.3036649 0.577777778,46.2172775 C-1.3,39.3062827 2.31111111,32.6832461 10.5444444,34.1230366 C10.5444444,23.7565445 14.1555556,15.5497382 20.2222222,6.91099476 C17.7666667,5.90314136 15.4555556,4.46335079 13.2888889,2.87958115 C11.7,1.72774869 13.4333333,-0.719895288 15.0222222,0.431937173 C19.5,3.45549738 25.7111111,5.32722513 31.0555556,3.88743455 Z M24.8444444,32.395288 C20.8,26.4921466 19.7888889,18.5732984 20.2222222,11.6623037 C15.6,19.0052356 13.1444444,25.7722513 13,34.1230366 C16.4666667,33.6910995 18.9222222,34.6989529 20.6555556,36.4267016 C21.2333333,34.6989529 22.6777778,33.2591623 24.8444444,32.395288 Z" id="Shape" fill-rule="nonzero"></path>
                    </g>
                </g>
                <g id="noun_1137986_cc" transform="translate(230.000000, 114.000000)">
                    <g id="Group">
                        <ellipse id="Oval" transform="translate(5.678862, 39.797251) rotate(35.845242) translate(-5.678862, -39.797251) " cx="5.67886222" cy="39.7972513" rx="1" ry="1"></ellipse>
                        <path d="M4.33333333,41.7539267 C4.47777778,40.8900524 5.77777778,41.1780105 5.63333333,42.0418848 C5.34444444,43.3376963 5.92222222,45.2094241 6.64444444,46.3612565 C7.07777778,47.0811518 5.92222222,47.6570681 5.48888889,46.9371728 C4.62222222,45.6413613 4.04444444,43.3376963 4.33333333,41.7539267 Z" id="Shape" fill-rule="nonzero"></path>
                        <path d="M23.9777778,38.7303665 C23.8333333,38.0104712 24.9888889,37.8664921 24.9888889,38.5863874 C25.1333333,39.7382199 26,41.1780105 26.7222222,41.8979058 C27.3,42.473822 26.4333333,43.1937173 26,42.7617801 C24.9888889,41.7539267 24.1222222,40.1701571 23.9777778,38.7303665 Z" id="Shape" fill-rule="nonzero"></path>
                        <path d="M33.0777778,32.6832461 C31.3444444,31.8193717 29.6111111,32.395288 28.1666667,33.4031414 C27.4444444,33.9790576 27.1555556,34.1230366 26.4333333,34.2670157 C23.5444444,35.1308901 21.9555556,36.8586387 22.8222222,40.026178 C23.5444444,42.9057592 26.4333333,45.7853403 29.4666667,46.3612565 C31.9222222,46.6492147 34.3777778,45.6413613 35.6777778,43.4816754 C37.7,40.3141361 36.6888889,34.4109948 33.0777778,32.6832461 Z M19.9333333,46.3612565 C21.8111111,41.0340314 19.6444444,35.2748691 12.7111111,36.2827225 C11.7,36.5706806 11.4111111,36.5706806 10.4,36.2827225 C3.61111111,34.986911 1.44444444,40.3141361 2.88888889,45.6413613 C5.34444444,54.7120419 16.7555556,55.2879581 19.9333333,46.3612565 Z M31.0555556,3.88743455 C32.9333333,3.31151832 33.9444444,7.63089005 31.9222222,8.20680628 C29.0333333,9.07068063 26,8.78272251 23.1111111,7.91884817 C22.2444444,15.5497382 22.5333333,25.052356 27.1555556,31.3874346 C29.3222222,29.947644 31.7777778,29.5157068 34.0888889,30.6675393 C38.8555556,32.9712042 40.3,40.4581152 37.5555556,44.7774869 C35.8222222,47.513089 32.5,48.9528796 29.1777778,48.5209424 C26.7222222,48.0890052 24.4111111,46.6492147 22.8222222,44.6335079 C22.6777778,45.4973822 22.3888889,46.2172775 22.1,47.0811518 C18.3444444,58.0235602 3.75555556,57.3036649 0.577777778,46.2172775 C-1.3,39.3062827 2.31111111,32.6832461 10.5444444,34.1230366 C10.5444444,23.7565445 14.1555556,15.5497382 20.2222222,6.91099476 C17.7666667,5.90314136 15.4555556,4.46335079 13.2888889,2.87958115 C11.7,1.72774869 13.4333333,-0.719895288 15.0222222,0.431937173 C19.5,3.45549738 25.7111111,5.32722513 31.0555556,3.88743455 Z M24.8444444,32.395288 C20.8,26.4921466 19.7888889,18.5732984 20.2222222,11.6623037 C15.6,19.0052356 13.1444444,25.7722513 13,34.1230366 C16.4666667,33.6910995 18.9222222,34.6989529 20.6555556,36.4267016 C21.2333333,34.6989529 22.6777778,33.2591623 24.8444444,32.395288 Z" id="Shape" fill-rule="nonzero"></path>
                    </g>
                </g>
                <g id="noun_1137979_cc" transform="translate(244.000000, 300.000000)">
                    <path d="M21.574344,6.442105 C22.0116618,4.69229889 21.7201166,3.67157866 21.1370262,2.06758973 C20.4081633,0.171966454 23.1778426,-0.848753774 23.9067055,0.901052331 C24.6355685,2.94249279 25.0728863,4.54648172 24.4897959,6.73373935 C24.9271137,6.73373935 25.2186589,6.87955652 25.5102041,6.87955652 C31.9241983,0.463600805 39.7959184,2.21340691 50,7.90027675 C46.2099125,10.2333516 42.7113703,14.1704153 38.483965,16.2118558 C40.5247813,19.4198336 41.6909621,23.2110802 41.6909621,27.1481439 C41.6909621,38.6677008 32.361516,48 20.845481,48 C9.32944606,48 0,38.6677008 0,27.1481439 C0,15.4827699 9.76676385,6.00465347 21.574344,6.442105 Z M4.37317784,28.89795 C4.22740525,27.0023267 7.14285714,26.7106924 7.28862974,28.7521328 C7.72594752,34.5848199 11.2244898,39.3967866 16.909621,41.0007756 C17.7842566,41.2924099 18.2215743,42.0214958 17.9300292,42.8963989 C17.7842566,43.6254847 16.909621,44.0629363 16.180758,43.9171191 C9.18367347,42.0214958 4.95626822,36.0429916 4.37317784,28.89795 Z M5.97667638,22.9194458 C6.85131195,22.9194458 7.58017493,23.5027145 7.58017493,24.5234348 C7.58017493,25.3983378 6.85131195,25.9816065 5.97667638,25.9816065 C5.10204082,25.9816065 4.37317784,25.3983378 4.37317784,24.5234348 C4.37317784,23.5027145 5.10204082,22.9194458 5.97667638,22.9194458 Z M23.6151603,11.5457061 C30.7580175,2.65085844 37.6093294,4.10903019 45.6268222,8.04609393 C44.7521866,8.62936263 37.3177843,19.5656508 24.9271137,13.1496951 C28.2798834,9.65008286 31.6326531,8.62936263 37.4635569,8.1919111 C29.7376093,6.58792217 27.5510204,9.21263133 23.6151603,11.5457061 Z" id="Shape"></path>
                </g>
                <g id="noun_1137979_cc" transform="translate(244.000000, 0.000000)">
                    <path d="M21.574344,6.442105 C22.0116618,4.69229889 21.7201166,3.67157866 21.1370262,2.06758973 C20.4081633,0.171966454 23.1778426,-0.848753774 23.9067055,0.901052331 C24.6355685,2.94249279 25.0728863,4.54648172 24.4897959,6.73373935 C24.9271137,6.73373935 25.2186589,6.87955652 25.5102041,6.87955652 C31.9241983,0.463600805 39.7959184,2.21340691 50,7.90027675 C46.2099125,10.2333516 42.7113703,14.1704153 38.483965,16.2118558 C40.5247813,19.4198336 41.6909621,23.2110802 41.6909621,27.1481439 C41.6909621,38.6677008 32.361516,48 20.845481,48 C9.32944606,48 0,38.6677008 0,27.1481439 C0,15.4827699 9.76676385,6.00465347 21.574344,6.442105 Z M4.37317784,28.89795 C4.22740525,27.0023267 7.14285714,26.7106924 7.28862974,28.7521328 C7.72594752,34.5848199 11.2244898,39.3967866 16.909621,41.0007756 C17.7842566,41.2924099 18.2215743,42.0214958 17.9300292,42.8963989 C17.7842566,43.6254847 16.909621,44.0629363 16.180758,43.9171191 C9.18367347,42.0214958 4.95626822,36.0429916 4.37317784,28.89795 Z M5.97667638,22.9194458 C6.85131195,22.9194458 7.58017493,23.5027145 7.58017493,24.5234348 C7.58017493,25.3983378 6.85131195,25.9816065 5.97667638,25.9816065 C5.10204082,25.9816065 4.37317784,25.3983378 4.37317784,24.5234348 C4.37317784,23.5027145 5.10204082,22.9194458 5.97667638,22.9194458 Z M23.6151603,11.5457061 C30.7580175,2.65085844 37.6093294,4.10903019 45.6268222,8.04609393 C44.7521866,8.62936263 37.3177843,19.5656508 24.9271137,13.1496951 C28.2798834,9.65008286 31.6326531,8.62936263 37.4635569,8.1919111 C29.7376093,6.58792217 27.5510204,9.21263133 23.6151603,11.5457061 Z" id="Shape"></path>
                </g>
                <g id="noun_1137987_cc" transform="translate(13.000000, 145.000000)">
                    <path d="M27.4246575,32.2328767 C22.0821918,25.8219178 21.0136986,15.8493151 21.9041096,7.83561644 C24.7534247,8.54794521 27.7808219,8.90410959 30.630137,8.01369863 C32.5890411,7.47945205 31.5205479,3.20547945 29.739726,3.73972603 C24.3972603,5.16438356 18.3424658,3.38356164 14.0684932,0.356164384 C12.2876712,-0.890410959 10.6849315,1.60273973 12.2876712,2.84931507 C14.4246575,4.2739726 16.739726,5.69863014 19.0547945,6.76712329 C12.8219178,15.6712329 9.08219178,24.5753425 9.26027397,35.4383562 C1.06849315,33.8356164 -1.06849315,41.1369863 0.534246575,46.8356164 C3.38356164,57.6986301 16.739726,58.2328767 20.1232877,47.7260274 C22.4383562,40.7808219 19.2328767,34.369863 11.7534247,35.4383562 C11.7534247,26.5342466 14.2465753,19.0547945 19.0547945,11.3972603 C18.8767123,18.6986301 20.4794521,27.2465753 24.9315068,33.3013699 C22.6164384,33.8356164 21.1917808,35.0821918 20.3013699,36.5068493 C22.4383562,39 23.1506849,42.9178082 22.260274,46.8356164 C28.6712329,54.4931507 40.0684932,49.6849315 38.8219178,39.3561644 C38.2876712,33.8356164 34.0136986,28.3150685 27.4246575,32.2328767 Z M2.49315068,43.2739726 C2.49315068,42.3835616 3.91780822,42.5616438 3.73972603,43.4520548 C3.38356164,44.8767123 4.09589041,46.6575342 4.63013699,47.7260274 C5.16438356,48.4383562 4.09589041,49.1506849 3.56164384,48.4383562 C2.67123288,47.0136986 2.1369863,44.8767123 2.49315068,43.2739726 Z M4.09589041,40.7808219 C4.45205479,40.9589041 4.63013699,41.4931507 4.2739726,41.8493151 C4.09589041,42.0273973 3.56164384,42.2054795 3.20547945,42.0273973 C3.02739726,41.6712329 2.84931507,41.3150685 3.20547945,40.9589041 C3.38356164,40.6027397 3.91780822,40.4246575 4.09589041,40.7808219 Z" id="Shape"></path>
                </g>
                <g id="noun_1137987_cc" transform="translate(315.000000, 145.000000)">
                    <path d="M27.4246575,32.2328767 C22.0821918,25.8219178 21.0136986,15.8493151 21.9041096,7.83561644 C24.7534247,8.54794521 27.7808219,8.90410959 30.630137,8.01369863 C32.5890411,7.47945205 31.5205479,3.20547945 29.739726,3.73972603 C24.3972603,5.16438356 18.3424658,3.38356164 14.0684932,0.356164384 C12.2876712,-0.890410959 10.6849315,1.60273973 12.2876712,2.84931507 C14.4246575,4.2739726 16.739726,5.69863014 19.0547945,6.76712329 C12.8219178,15.6712329 9.08219178,24.5753425 9.26027397,35.4383562 C1.06849315,33.8356164 -1.06849315,41.1369863 0.534246575,46.8356164 C3.38356164,57.6986301 16.739726,58.2328767 20.1232877,47.7260274 C22.4383562,40.7808219 19.2328767,34.369863 11.7534247,35.4383562 C11.7534247,26.5342466 14.2465753,19.0547945 19.0547945,11.3972603 C18.8767123,18.6986301 20.4794521,27.2465753 24.9315068,33.3013699 C22.6164384,33.8356164 21.1917808,35.0821918 20.3013699,36.5068493 C22.4383562,39 23.1506849,42.9178082 22.260274,46.8356164 C28.6712329,54.4931507 40.0684932,49.6849315 38.8219178,39.3561644 C38.2876712,33.8356164 34.0136986,28.3150685 27.4246575,32.2328767 Z M2.49315068,43.2739726 C2.49315068,42.3835616 3.91780822,42.5616438 3.73972603,43.4520548 C3.38356164,44.8767123 4.09589041,46.6575342 4.63013699,47.7260274 C5.16438356,48.4383562 4.09589041,49.1506849 3.56164384,48.4383562 C2.67123288,47.0136986 2.1369863,44.8767123 2.49315068,43.2739726 Z M4.09589041,40.7808219 C4.45205479,40.9589041 4.63013699,41.4931507 4.2739726,41.8493151 C4.09589041,42.0273973 3.56164384,42.2054795 3.20547945,42.0273973 C3.02739726,41.6712329 2.84931507,41.3150685 3.20547945,40.9589041 C3.38356164,40.6027397 3.91780822,40.4246575 4.09589041,40.7808219 Z" id="Shape"></path>
                </g>
            </g>
        </g>
    </g>
</svg>